<svg width="19" height="17" viewBox="0 0 19 17" fill="none" xmlns="http://www.w3.org/2000/svg">
<path d="M16.1553 2.68692C15.7602 2.29167 15.2911 1.97813 14.7749 1.76421C14.2586 1.55029 13.7052 1.44019 13.1464 1.44019C12.5875 1.44019 12.0342 1.55029 11.5179 1.76421C11.0016 1.97813 10.5326 2.29167 10.1375 2.68692L9.31759 3.50682L8.49769 2.68692C7.69968 1.88891 6.61735 1.4406 5.4888 1.4406C4.36025 1.4406 3.27792 1.88891 2.47991 2.68692C1.6819 3.48493 1.23359 4.56726 1.23359 5.69581C1.23359 6.82436 1.6819 7.90669 2.47991 8.7047L3.29981 9.5246L9.31759 15.5424L15.3354 9.5246L16.1553 8.7047C16.5505 8.30963 16.8641 7.84056 17.078 7.32429C17.2919 6.80801 17.402 6.25465 17.402 5.69581C17.402 5.13697 17.2919 4.58361 17.078 4.06733C16.8641 3.55106 16.5505 3.08199 16.1553 2.68692Z" fill="#7C3AED" stroke="#7C3AED" stroke-width="1.51095" stroke-linecap="round" stroke-linejoin="round"/>
</svg>
